<?xml version="1.0" standalone="no"?><!DOCTYPE svg PUBLIC "-//W3C//DTD SVG 1.1//EN" "http://www.w3.org/Graphics/SVG/1.1/DTD/svg11.dtd"><svg t="1573457880597" class="icon" viewBox="0 0 1024 1024" version="1.1" xmlns="http://www.w3.org/2000/svg" p-id="9277" xmlns:xlink="http://www.w3.org/1999/xlink" width="200" height="200"><defs><style type="text/css"></style></defs><path d="M661.333333 426.666667c35.413333 0 64-28.586667 64-64S696.746667 298.666667 661.333333 298.666667 597.333333 327.253333 597.333333 362.666667s28.586667 64 64 64z m-298.666666 0c35.413333 0 64-28.586667 64-64S398.08 298.666667 362.666667 298.666667 298.666667 327.253333 298.666667 362.666667 327.253333 426.666667 362.666667 426.666667z m149.333333 298.666666a255.573333 255.573333 0 0 0 241.066667-170.666666H270.933333c34.986667 99.413333 129.706667 170.666667 241.066667 170.666666z m-0.426667-682.666666C276.053333 42.666667 85.333333 233.813333 85.333333 469.333333s190.72 426.666667 426.24 426.666667C747.52 896 938.666667 704.853333 938.666667 469.333333S747.52 42.666667 511.573333 42.666667zM512 810.666667c-188.586667 0-341.333333-152.746667-341.333333-341.333334s152.746667-341.333333 341.333333-341.333333 341.333333 152.746667 341.333333 341.333333-152.746667 341.333333-341.333333 341.333334z" p-id="9278" fill="#707070"></path></svg>